<svg id="ad6b5295-7ebf-4dc3-a7a8-a4a4b8d35fca" data-name="Layer 1" xmlns="http://www.w3.org/2000/svg" width="316" height="204.86339" viewBox="0 0 316 204.86338">
	<!-- Style created for show/hide exclamation class -->
	<style type="text/css">
		@keyframes showhide {
		   0% { opacity: 1; }
		   10% { opacity: 1; }
		   15% { opacity: 1; }
		   100% { opacity: 0; }
		}
		
		.exclamation {
		   opacity: 1;
		   animation: showhide 2s ease infinite;
		}
	</style>
	<!-- End style section -->
	<path d="M 288.22534,204.25743 279.2,177.02107 c 0,0 9.92727,9.92728 9.92727,18.07273 l -1.78181,-18.83637 c 0,0 5.0909,6.87273 4.58181,17.3091 -0.50909,10.43636 -3.70193,10.6909 -3.70193,10.6909 z" fill="#e6e6e6" id="path12" style="stroke-width:0.4" />
	<path d="M 94.40837,179.45743 85.6,152.87583 c 0,0 9.68862,9.68862 9.68862,17.63826 l -1.73898,-18.38354 c 0,0 4.96852,6.70751 4.47167,16.89298 -0.49686,10.18548 -3.61294,10.4339 -3.61294,10.4339 z" fill="#e6e6e6" id="path14" style="stroke-width:0.4" />
	<path d="m 231.89022,191.72371 c 0.0151,17.48591 -34.66596,12.10727 -77.12368,12.14392 -42.45772,0.0366 -76.61425,5.47468 -76.62934,-12.0112 -0.0151,-17.48589 34.65327,-21.31886 77.11099,-21.35551 42.45773,-0.0367 76.62694,3.73688 76.64203,21.22279 z" fill="#e6e6e6" id="path16" style="stroke-width:0.4" />
	<rect y="203.85744" width="316" height="0.80000001" fill="#3f3d56" id="rect18" x="0" style="stroke-width:0.4" />
	<polygon points="505.336,366.797 505.336,420.322 491.459,420.322 484.855,366.797 " fill="#a0616a" id="polygon20" transform="matrix(0.4,0,0,0.4,0,-0.01981436)" />
	<path class="text-1" d="m 192.00235,166.52316 h 11.32169 v 6.74023 H 185.8787 v -0.6166 a 6.123648,6.123648 0 0 1 6.12365,-6.12363 z" fill="#2f2e41" id="path22" style="stroke-width:0.4" />
	<polygon points="607.336,445.797 607.336,499.322 593.459,499.322 586.855,445.797 " fill="#a0616a" id="polygon24" transform="matrix(0.4,0,0,0.4,0,-0.01981436)" />
	<path d="m 232.80235,198.12316 h 11.32169 v 6.74023 H 226.6787 v -0.6166 a 6.123648,6.123648 0 0 1 6.12365,-6.12363 z" fill="#2f2e41" id="path26" style="stroke-width:0.4" />
	<path d="m 268.53794,136.1038 a 4.126364,4.126364 0 0 0 -1.15834,-6.2204 l -12.89204,-52.517124 -8.24304,3.54656 15.33413,50.779604 a 4.14874,4.14874 0 0 0 6.95929,4.41136 z" fill="#a0616a" id="path28" style="stroke-width:0.4" />
	<path d="m 258.48307,29.965616 a 4.552908,4.552908 0 0 0 -6.96609,0.46099 l -19.95415,2.29083 3.03544,7.69657 18.14712,-3.39634 a 4.577572,4.577572 0 0 0 5.73768,-7.05205 z" fill="#a0616a" id="path30" style="stroke-width:0.4" />
	<path d="m 225.6,130.65743 8.70724,65.34967 10.83736,-2.2312 c 0,0 -1.59375,-47.59263 3.82495,-53.33005 C 254.38825,134.70843 242,124.65743 242,124.65743 Z" fill="#2f2e41" id="path32" style="stroke-width:0.4" />
	<path d="m 229.2,112.65743 -4,6 c 0,0 -30.8,-12.79971 -30.8,7.6 0,20.39972 -1.76252,34.24378 -2.4,35.2 -0.63748,0.95623 7.37505,3.4375 11.2,2.8 0,0 4.71875,-32.88753 4.4,-34.8 0,0 30.21342,14.81334 35.95085,13.53837 5.73743,-1.27498 7.09293,-5.7884 8.04915,-8.33837 0.95622,-2.54996 -0.4,-22.8 -0.4,-22.8 l -19.124,-5.83614 z" fill="#2f2e41" id="path34" style="stroke-width:0.4" />
	<path d="m 229.73966,76.633246 -1.14013,-1.36816 c 0,0 -12.76944,-28.73126 -7.75288,-36.48414 5.01657,-7.75288 26.90705,-8.89301 27.59113,-8.43696 0.68409,0.45605 -1.63395,6.37712 -0.0378,9.11344 0,0 -16.9576,3.67649 -18.09774,4.13254 -1.14014,0.45605 8.78646,17.30948 8.78646,17.30948 l -1.14012,10.26116 z" fill="#cccccc" id="path36" style="stroke-width:0.4" />
	<path d="m 252.0862,62.495626 c 0,0 -11.85733,1.36817 -12.3134,1.36817 -0.45607,0 -0.68407,-2.96434 -0.68407,-2.96434 l -10.4892,14.36563 c 0,0 -5.16769,41.676424 -3.79953,40.992344 1.36816,-0.68408 26.60212,3.24466 26.83016,1.42046 0.22803,-1.8242 -0.22804,-10.94524 0.45605,-11.4013 0.68409,-0.45605 11.85731,-28.731244 11.85731,-28.731244 0,0 -1.14012,-5.92867 -5.01656,-7.98091 -3.87644,-2.05223 -6.84076,-7.06881 -6.84076,-7.06881 z" fill="#cccccc" id="path38" style="stroke-width:0.4" />
	<path d="m 260.29513,73.668906 3.6484,3.87644 c 0,0 5.42079,44.543934 2.45647,45.912084 -2.96432,1.36816 -8.8,1.2 -8.8,1.2 l -5.74183,-21.11714 z" fill="#cccccc" id="path40" style="stroke-width:0.4" />
	<circle cx="240.69186" cy="49.179222" r="10.49552" fill="#a0616a" id="circle42" style="stroke-width:0.4" />
	<path d="m 238.22907,50.816946 c -0.14177,-2.17778 -2.88923,-2.2524 -5.07151,-2.27302 -2.18229,-0.0206 -4.79135,0.0573 -6.02616,-1.74217 -0.81604,-1.1892 -0.66017,-2.84013 0.014,-4.11511 0.67416,-1.27499 1.78308,-2.2556 2.87403,-3.19897 2.81655,-2.43554 5.71937,-4.85175 9.10088,-6.41065 3.38151,-1.5589 7.34418,-2.1888 10.85115,-0.9374 4.30803,1.53723 10.13171,9.45035 10.6346,13.9967 0.50289,4.54636 -1.31403,9.18101 -4.37676,12.57835 -3.06273,3.39733 -10.07275,2.0266 -14.48428,3.2352 2.68196,-3.79586 0.91417,-10.69303 -3.38228,-12.4656 z" fill="#2f2e41" id="path44" style="stroke-width:0.4" />
	<g class="exclamation" id="g50" transform="matrix(0.4,0,0,0.4,0,-0.01981436)">
		<circle cx="361.72171" cy="403.50461" r="62.989311" fill="#6c63ff" id="circle46" />
		<path d="M 524.65625,529.9355 A 45.15919,45.15919 0 0 1 483.40088,503.14936 L 383.44873,278.05757 a 59.83039,59.83039 0 1 1 111.87012,-41.86426 l 72.37744,235.41211 a 45.07978,45.07978 0 0 1 -43.04,58.33008 z" transform="translate(-205,-193.89598)" fill="#6c63ff" id="path48" />
	</g>
</svg>
